<svg width="512" height="512" fill="none" xmlns="http://www.w3.org/2000/svg"><path d="M405.9 61.2 370 48.4A21.6 21.6 0 0 0 332.7 28l-4.2 5.4-10.4-3.7c-1.4-4.7-4.2-9-8-12.1a9.3 9.3 0 0 0-17.6-5.4 24.5 24.5 0 0 0-13.4 43.3 9.3 9.3 0 0 0 17.5 5.5c5-.4 9.7-2.3 13.5-5.4l1.2.3-35.3 46-24.4 4.8a30 30 0 0 0-14.7-3.8l-53.8-.3a30.2 30.2 0 0 0-30.3 30.1v15.4l26.5-21.8-54 71.2a21.6 21.6 0 0 0-2.9 20.2l30.1 82.5a21.6 21.6 0 0 0 40.5-14.7l-25.5-70.1 48.6-66-26.5 66.3 22.9 62.7a42.2 42.2 0 0 1-19.8 51.7l-6.3 20.2-79 81.7a25.9 25.9 0 0 0 36.7 36.4l83.5-86.2c3-3 5.1-6.5 6.3-10.5l32.9-105v-119l25.6-5.1c5.1-1 9.7-3.9 12.9-8l51.2-66.9 43.8 11.5a9.4 9.4 0 0 0 5.6-18ZM309.2 481.3l-20-105.6-1.2-4.2-17.7-47-16.6 53.4c-3 9.4-7.6 15-13 20.5l17.7 92.6a25.9 25.9 0 0 0 50.8-9.7Z" fill="#F670CA"/><path d="M210.5 89.4a44.7 44.7 0 1 0 0-89.4 44.7 44.7 0 0 0 0 89.4Z" fill="#F670CA"/></svg>