<svg width="512" height="512" fill="none" xmlns="http://www.w3.org/2000/svg"><g clip-path="url(#a)"><path d="M359.7 186.3 261.5 88a93.4 93.4 0 0 1 1.2-10.4v-.3a94.1 94.1 0 0 1 2.5-10.7l.1-.3c1.3-4.5 3-8.9 5-13.2l.4-.7 1.2-2.3.7-1.3 1.1-2a95.5 95.5 0 0 1 8.2-12l1-1.3 1.8-2 1-1.1A94.2 94.2 0 0 1 328 3.8a93.6 93.6 0 0 1 92.5 23.5 93.2 93.2 0 0 1-3.1 134.8l-1 1c-.8.5-1.5 1.1-2.1 1.7l-1.4 1.1-1.9 1.5-1.5 1.1a94 94 0 0 1-8.5 5.5l-2 1.2-1.3.7-2.3 1.1-.7.4c-4.3 2-8.8 3.7-13.3 5l-.2.1-3.3 1h-.4l-3.3.8-.4.1-3.3.6h-.3a92.5 92.5 0 0 1-10.5 1.3Zm69.7 145a86.7 86.7 0 0 0-61.7-25.5c-23.4 0-45.3 9-61.8 25.6l-135 135a58.6 58.6 0 0 1-83.4 0l-1-1a59 59 0 0 1 0-83.4l35.8-35.9 10.2 10.2a14.2 14.2 0 0 0 18.9 1l189-150.3-.7-.7-98.3-98.2-.8-.9L89.2 295a14.2 14.2 0 0 0 1 19l12 12L66.5 362c-34 34-34 89.4 0 123.5l1 1a86.7 86.7 0 0 0 61.8 25.6c23.3 0 45.3-9 61.8-25.6l135-135a58.6 58.6 0 0 1 83.3 0L447 389a14.2 14.2 0 0 0 20-20l-37.5-37.6Z" fill="#F670CA"/></g><defs><clipPath id="a"><path fill="#fff" d="M0 0h512v512H0z"/></clipPath></defs></svg>