<svg width="512" height="512" fill="none" xmlns="http://www.w3.org/2000/svg"><g clip-path="url(#a)" fill="#F670CA"><path d="M196.6 126.6a44.1 44.1 0 1 0 0-88.3 44.1 44.1 0 0 0 0 88.3Z"/><path d="M455 390.9c-1.8-8.6-21.8-12-46.7-8.6l-49.3-246 14.9 10.8a10.9 10.9 0 1 0 12.7-17.6L365 113.9l4.7-9.2a21.3 21.3 0 1 0-38-19.2l-1.6 3.2-13.3-9.5A23.8 23.8 0 1 0 304 96.8l16 11.6-14.8 29.3-53.2-2.4c-5.4-.2-11 0-16.4.9l-61 9-51.7-44.6-24.3-85.1a21.3 21.3 0 0 0-41 11.6l26 91.3c1.2 4 3.5 7.6 6.6 10.3l65.5 56.5 23.3 144h.4l8 69.6-54.1 72.3a25.6 25.6 0 0 0 41 30.6l60.1-80.4c3.9-5.2 5.7-11.7 5-18.2L230 321l10.5-1.6 50.9 63.2-20.5 98.8a25.6 25.6 0 0 0 50 10.3L344 381c1.5-7.5-.4-15.2-5.2-21.2L288.2 297l-19.1-118.3 48 2.2c8.7.3 16.3-4.4 20-11.7l4.5-8.8 45.3 226.2c-24.3 6.5-41.4 17.3-39.7 25.9 2 9.7 27.6 12.7 57.4 6.8 29.7-6 52.3-18.7 50.3-28.4Z"/></g><defs><clipPath id="a"><path fill="#fff" d="M0 0h512v512H0z"/></clipPath></defs></svg>