<svg width="512" height="512" fill="none" xmlns="http://www.w3.org/2000/svg"><g clip-path="url(#a)" fill="#F670CA"><path d="m58.4 359.5-.3 37.3-53.4 75a25.5 25.5 0 1 0 41.5 29.5l58.1-81.5.7-1-9.2-21.8-37.4-37.5ZM243.8 145.7l16.4 27.6 2.1-1.4a21.2 21.2 0 0 0-18.6-37.7c.7 3.7.8 7.6.1 11.5Z"/><path d="M155 364.7c-1.7-4.3-4.7-8-8.4-10.7l-83.2-60.7 55.1 28.3L150.1 213l14.1 9.4a21.2 21.2 0 0 0 23.8 0l36.8-25-20.2-23.5a34 34 0 0 1-13.3-5.2L176 179.1 157.8 167c-1.1-3.1-2.7-6-4.7-8.6l-5.7.3a55.7 55.7 0 0 1-43-20.2l-7.2-2.2 11.5 19L60 97.8 51.7 19a21.2 21.2 0 0 0-42.2 4.5l9 85c.4 4.3 2 8.3 4.8 11.6l53 62.7L49 159.4 13 292.4a34 34 0 0 0 12.7 36.4l85.2 62.2 44.5 105.4a25.5 25.5 0 0 0 47-19.8l-47.2-112Z"/><path d="M147.4 58.9a44 44 0 1 0 29 77.1 34 34 0 0 1 14-23.4 44 44 0 0 0-43-53.7ZM268.6 210.6l-37.3-63a22.3 22.3 0 1 0-20.9 15l47.8 55.5a6.5 6.5 0 0 0 10.4-7.5Z"/></g><defs><clipPath id="a"><path fill="#fff" d="M0 0h512v512H0z"/></clipPath></defs></svg>