<svg width="512" height="512" fill="none" xmlns="http://www.w3.org/2000/svg"><g clip-path="url(#a)" fill="#F670CA"><path d="m346.6 430.5-54.8-320a14 14 0 0 0 12-10.2c1.8-6.8-1.4-14.8-11.1-17.4-.8 3 0 .5-17.7 48.3L327 433.9a10 10 0 1 0 19.7-3.4Z"/><path d="M241.8 170.4 275 81.1a21.5 21.5 0 0 0-40.4-15L208 137.7l-67-15.5 50.5 1.5a32.1 32.1 0 0 0-35.8-18.1l-56 11.8a32.1 32.1 0 0 0-25 38L107.4 310l-4.4 75-53.5 89a25 25 0 0 0 43 25.8l56.7-94.2c2-3.5 3.3-7.4 3.5-11.5l5.2-87.8 20.5-4.3 27.6 67.3 1.3 117.9a25 25 0 1 0 50.1-.6L256.1 364c0-3.1-.7-6.3-1.9-9.2L227 288.4 208 198.8l-76.9-34.6 85.5 19.7a21.5 21.5 0 0 0 25-13.5Z"/><path d="M216.9 62.4a26.5 26.5 0 0 0-49.5-3.4 47.5 47.5 0 1 0-1.9 6 26.5 26.5 0 0 0 40.8 27l11-29.5h-.4ZM454.4 17.1l-74.8 17c-2.8 1.4-4.9 4.3-4.9 7.7v56.8c-2.6-.7-5.4-1-8.3-1-13.9 0-25.1 8.2-25.1 18.4 0 10.1 11.2 18.4 25 18.4 15 0 24.7-9.4 25-20.6l.2-50.4 58-13.2v31.4c-2.7-.7-5.5-1.1-8.4-1.1-13.8 0-25 8.2-25 18.4s11.2 18.4 25 18.4c14.9 0 24.6-9.4 25-20.6v-72c0-6-6.2-10-11.7-7.6Z"/></g><defs><clipPath id="a"><path fill="#fff" d="M0 0h512v512H0z"/></clipPath></defs></svg>